<svg xmlns="http://www.w3.org/2000/svg" width="64" height="64" shape-rendering="geometricPrecision" text-rendering="geometricPrecision" image-rendering="optimizeQuality" fill-rule="evenodd" clip-rule="evenodd" viewBox="0 0 640 640"><path fill-rule="nonzero" d="M434.45 300.736c60.733 14.02 103.419 31.252 127.903 51.39 35.28 28.678 52.831 65.73 52.831 111.308 0 48.166-19.323 87.958-57.992 119.375C509.687 620.983 440.569 640 350.036 640H24.815v-17.398c29.634 0 49.606-2.74 60.248-8.386 10.477-5.48 17.882-12.555 22.075-21.425 4.347-8.859 6.438-30.45 6.438-65.068v-415.28c0-34.643-2.091-56.387-6.438-65.4-4.192-9.023-11.763-16.11-22.405-21.437-10.63-5.48-30.603-8.055-59.918-8.055V-.013h306.7c73.289 0 125.329 6.614 155.767 19.666 30.602 13.05 54.614 32.528 72.178 58.465 17.716 25.937 26.41 53.646 26.41 82.808 0 30.933-11.103 58.312-33.509 82.477-22.217 24-61.524 43.17-117.91 57.332zm-171.699-12.874c44.623 0 77.481-4.985 98.73-14.977 21.271-10.146 37.535-24.319 48.98-42.532 11.28-18.2 16.914-41.551 16.914-69.91 0-28.182-5.634-51.379-16.76-69.591-11.102-18.036-27.048-31.737-47.835-41.233-20.788-9.508-54.119-14.02-100.03-13.701v251.944zm0 36.874v205.231l-.484 23.682c0 16.913 4.193 29.8 12.898 38.504 8.693 8.54 21.425 12.886 38.492 12.886 25.123 0 48.32-5.48 69.58-16.76 21.26-11.102 37.524-27.39 48.804-48.638 11.445-21.107 17.079-44.788 17.079-70.88 0-29.964-6.922-56.87-20.788-80.551-13.843-23.682-32.847-40.276-57.178-49.773-24.166-9.508-60.402-14.02-108.403-13.7z"/></svg>